<?xml version="1.0" standalone="no"?>
<!DOCTYPE svg PUBLIC "-//W3C//DTD SVG 20010904//EN"
 "http://www.w3.org/TR/2001/REC-SVG-20010904/DTD/svg10.dtd">
<svg version="1.0" xmlns="http://www.w3.org/2000/svg"
 width="4000.000000pt" height="3200.000000pt" viewBox="0 0 4000.000000 3200.000000"
 preserveAspectRatio="xMidYMid meet">

<g transform="translate(0.000000,3200.000000) scale(0.100000,-0.100000)"
fill="#000000" stroke="none">
<path d="M19313 24170 c-147 -31 -884 -276 -3963 -1319 -2189 -742 -3225
-1099 -3222 -1112 2 -8 69 -225 149 -484 80 -258 153 -497 163 -530 10 -33
250 -816 535 -1740 284 -924 649 -2112 812 -2640 570 -1858 804 -2619 1098
-3575 163 -531 338 -1102 390 -1270 165 -538 401 -1308 597 -1945 240 -785
246 -806 308 -1010 54 -178 147 -483 205 -670 19 -60 73 -238 120 -395 48
-157 95 -312 105 -345 27 -88 33 -113 21 -95 -11 18 -50 134 -57 170 -3 14
-14 45 -25 69 -10 24 -19 49 -19 56 0 8 -6 16 -12 18 -10 4 -10 6 0 6 7 1 10
6 7 12 -5 7 -15 5 -31 -6 -24 -15 -24 -15 -12 4 6 11 16 17 21 14 5 -3 7 3 4
13 -3 11 -8 35 -11 55 -5 29 -12 38 -32 43 -14 4 -22 11 -19 16 4 6 11 8 16 5
5 -4 9 0 8 7 -1 18 -17 56 -18 42 -1 -14 -59 -39 -68 -30 -4 3 -7 17 -8 31 -1
30 21 33 30 5 3 -11 11 -20 17 -20 5 0 8 7 4 15 -4 10 1 15 17 16 21 0 21 1 2
9 -11 5 -15 9 -10 10 6 0 2 5 -8 11 -18 10 -18 11 0 26 10 8 12 11 5 8 -10 -5
-13 -1 -10 12 3 21 0 23 -34 23 -22 -1 -22 -1 -4 -15 25 -19 31 -64 8 -60 -9
1 -20 -3 -24 -9 -4 -6 -10 -7 -15 -3 -9 9 17 28 29 21 4 -3 8 0 8 5 0 6 -11
11 -25 11 -29 0 -33 -24 -9 -52 14 -14 14 -20 4 -33 -7 -8 -9 -15 -5 -15 4 0
-6 -13 -23 -30 -34 -32 -47 -36 -57 -20 -3 6 -1 10 4 10 6 0 11 5 11 12 0 6
-9 3 -20 -7 -24 -22 -29 -55 -5 -35 10 9 15 9 15 1 0 -6 -5 -11 -11 -11 -5 0
-7 -5 -4 -11 5 -7 13 -5 25 6 15 14 18 14 30 0 7 -8 16 -12 21 -9 5 3 9 0 9
-5 0 -14 -17 -14 -25 -1 -8 12 -35 1 -35 -15 0 -7 -7 -16 -16 -19 -24 -9 -26
-8 -14 14 8 16 8 22 -4 26 -21 8 -28 33 -13 50 6 9 27 31 46 49 30 29 32 35
17 41 -9 4 -20 4 -23 0 -4 -3 -1 -6 5 -6 7 0 12 -4 12 -10 0 -5 -6 -10 -13
-10 -7 0 -23 -9 -36 -21 -12 -12 -34 -25 -49 -30 l-27 -9 27 3 c19 3 25 0 21
-10 -3 -8 -13 -11 -24 -8 -11 4 -19 2 -19 -4 0 -6 7 -11 15 -11 8 0 24 -9 35
-20 11 -11 16 -20 10 -20 -5 0 -10 -8 -10 -17 -1 -25 -23 -51 -39 -45 -8 3
-11 0 -7 -7 4 -6 -4 -16 -21 -23 l-28 -12 38 -4 c21 -2 45 2 53 9 8 6 17 9 21
6 3 -4 -2 -10 -11 -13 -10 -4 -13 -9 -8 -13 6 -4 -11 -6 -37 -5 -53 2 -92 21
-84 41 4 10 9 11 18 3 10 -9 19 -6 34 9 27 27 28 45 1 29 -14 -9 -16 -14 -7
-20 8 -5 7 -8 -4 -8 -9 0 -19 10 -23 23 -8 32 -7 39 5 31 19 -11 89 -15 89 -5
0 6 -4 13 -10 16 -5 3 -10 2 -10 -3 0 -6 -10 -8 -22 -4 l-22 5 22 8 c30 11 28
17 -3 11 -14 -2 -25 -11 -25 -21 0 -13 -2 -14 -9 -2 -10 15 -61 27 -61 14 0
-3 10 -17 22 -30 12 -13 16 -23 10 -23 -6 0 -14 5 -18 11 -5 8 -10 7 -16 -4
-5 -9 -16 -14 -26 -11 -13 4 -12 3 2 -7 15 -9 21 -9 24 -1 2 7 8 10 13 6 15
-9 10 -24 -7 -24 -10 0 -14 -6 -10 -15 3 -8 1 -15 -4 -15 -6 0 -10 7 -10 15 0
19 -14 19 -30 0 -10 -12 -10 -15 1 -15 10 -1 9 -4 -3 -14 -10 -7 -15 -16 -11
-19 3 -4 -1 -7 -10 -7 -9 0 -19 -4 -22 -10 -12 -20 27 -9 48 13 21 22 57 26
57 7 0 -5 -7 -7 -15 -4 -21 8 -41 -6 -24 -17 12 -8 12 -11 -1 -18 -9 -6 -17
-6 -20 -1 -8 13 -50 0 -50 -16 0 -14 -40 -41 -40 -27 -1 4 -7 -3 -14 -17 -8
-14 -12 -29 -9 -34 3 -5 0 -7 -8 -4 -8 3 -15 13 -17 24 -2 14 -1 16 6 6 7 -11
11 -8 15 10 4 15 1 28 -10 38 -15 14 -16 13 -5 -1 10 -13 10 -18 -2 -22 -8 -3
-17 -1 -20 6 -3 9 -5 8 -5 -1 -1 -7 -6 -10 -12 -6 -7 4 -10 1 -7 -7 3 -8 10
-13 15 -12 5 1 10 -4 10 -12 0 -8 -4 -12 -9 -9 -4 3 -8 -1 -8 -8 0 -10 -3 -9
-10 2 -5 8 -12 11 -16 7 -4 -3 -2 -12 4 -19 7 -9 6 -18 -4 -32 -7 -10 -11 -23
-7 -29 3 -5 -3 -6 -16 -2 -16 5 -20 3 -15 -9 3 -8 9 -15 12 -14 19 2 25 -3 12
-12 -8 -5 -12 -12 -8 -15 11 -12 49 19 45 37 -6 21 29 32 37 11 3 -8 10 -11
16 -8 5 3 10 1 10 -5 0 -6 -10 -8 -26 -4 -18 5 -25 3 -21 -3 4 -6 -4 -18 -18
-27 -14 -9 -25 -23 -25 -31 0 -8 -4 -15 -10 -15 -5 0 -10 7 -10 15 0 22 -30
66 -41 59 -5 -3 -9 -1 -9 5 0 5 5 13 10 16 11 7 -12 35 -29 35 -5 0 -13 5 -17
12 -5 8 2 9 25 5 24 -5 31 -3 28 6 -2 6 -15 12 -28 12 -15 0 -28 8 -34 22 -5
12 -19 24 -32 28 -15 3 -20 10 -17 20 4 8 1 15 -5 15 -7 0 -14 -7 -17 -15 -7
-18 -30 -20 -37 -2 -3 6 -6 -1 -6 -16 -1 -24 2 -26 17 -18 10 6 24 6 32 1 8
-5 18 -6 22 -4 4 3 8 1 8 -5 0 -5 -6 -12 -12 -14 -13 -5 16 -11 39 -8 7 1 10
-5 7 -13 -3 -8 3 -23 14 -34 21 -21 27 -73 8 -69 -6 1 -10 -6 -10 -16 2 -14
-1 -15 -13 -6 -11 10 -15 8 -20 -9 -3 -12 -14 -24 -24 -27 -10 -4 -26 -14 -36
-23 -13 -13 -15 -13 -11 -2 3 8 1 25 -3 37 -5 14 -4 25 3 29 6 4 8 3 5 -2 -3
-6 -2 -16 4 -24 6 -11 9 -9 9 11 0 26 -42 60 -57 46 -3 -4 1 -7 10 -7 9 0 17
-4 17 -10 0 -5 -4 -10 -10 -10 -6 0 -6 -10 1 -27 22 -57 -1 -113 -46 -112 -11
0 -14 3 -7 6 6 2 10 9 7 13 -3 5 -13 6 -22 3 -10 -4 -14 -2 -9 5 8 14 -9 24
-46 28 -28 4 -29 2 -24 -29 4 -20 3 -25 -2 -13 -7 17 -10 16 -26 -9 -10 -15
-15 -30 -11 -33 3 -4 10 -1 14 7 5 7 12 11 17 9 4 -1 15 11 24 27 8 17 16 32
18 34 1 3 8 -1 15 -8 9 -9 9 -14 -2 -20 -8 -5 -11 -16 -8 -25 9 -22 28 -20 21
2 -5 14 -4 14 4 2 6 -8 8 -18 6 -22 -3 -4 0 -8 5 -8 13 0 15 -27 2 -34 -4 -3
-25 3 -45 13 -40 21 -76 17 -76 -8 -1 -13 -2 -13 -11 3 -9 15 -13 16 -20 5 -5
-8 -3 -16 4 -21 9 -5 7 -12 -7 -25 -10 -10 -16 -12 -12 -5 4 6 2 12 -3 12 -6
0 -10 6 -8 12 1 7 -8 14 -20 16 -13 2 -23 -1 -23 -6 0 -5 -9 -12 -20 -15 -13
-3 -20 -14 -20 -30 0 -13 -10 -36 -21 -51 -16 -20 -19 -30 -10 -39 8 -8 11 -7
11 6 0 10 8 17 20 17 11 0 20 -7 20 -15 0 -18 -16 -20 -24 -2 -3 6 -4 3 -3 -8
1 -12 -3 -19 -11 -17 -10 2 -10 -2 -2 -18 7 -13 7 -20 0 -20 -5 0 -10 5 -10
10 0 6 -9 10 -20 10 -11 0 -20 5 -20 10 0 6 7 10 15 10 17 0 20 16 5 25 -5 3
-10 1 -10 -4 0 -6 -4 -11 -10 -11 -5 0 -10 11 -10 25 0 14 5 25 11 25 5 0 8
-4 5 -8 -3 -5 2 -9 10 -9 8 0 13 6 10 14 -8 19 4 43 21 43 8 0 13 6 10 13 -2
6 -10 11 -16 10 -6 -2 -11 2 -11 8 0 6 9 9 20 6 11 -3 20 -1 20 4 0 5 7 9 15
9 8 0 15 8 14 18 0 10 -3 12 -6 5 -2 -7 -22 -17 -43 -23 -29 -8 -38 -15 -33
-26 3 -9 0 -14 -8 -12 -9 2 -14 -5 -13 -19 0 -19 -2 -21 -15 -10 -12 10 -14 9
-8 -6 4 -11 2 -17 -7 -17 -8 0 -17 -7 -20 -15 -4 -11 0 -15 11 -13 28 5 26
-27 -2 -42 -20 -11 -24 -19 -21 -47 3 -18 0 -33 -5 -33 -5 0 -9 4 -9 10 0 11
-32 1 -42 -14 -12 -18 -9 -36 6 -36 9 0 12 7 9 20 -4 14 0 20 11 20 10 0 14
-4 11 -10 -3 -6 1 -7 9 -4 9 3 16 3 16 -1 0 -12 -24 -30 -45 -33 -11 -2 -21
-8 -23 -13 -2 -5 -8 -9 -14 -9 -7 0 -7 5 1 13 6 8 8 17 4 20 -9 10 -25 9 -19
-1 3 -5 -3 -16 -14 -24 -12 -11 -17 -25 -14 -40 5 -21 4 -21 -6 -5 -9 14 -8
23 4 42 20 31 20 41 1 25 -13 -11 -14 -10 -9 4 4 9 19 19 34 22 22 5 27 11 24
31 -3 27 -24 57 -24 35 0 -7 -9 -11 -22 -9 -13 2 -17 2 -10 0 6 -3 12 -11 12
-20 0 -10 6 -13 16 -9 14 5 15 4 5 -8 -11 -13 -17 -13 -42 6 -23 18 -32 19
-42 9 -10 -10 -8 -11 6 -6 12 5 17 2 17 -9 0 -10 6 -13 15 -10 8 4 15 1 15 -5
0 -6 -5 -11 -11 -11 -5 0 -8 -4 -5 -8 3 -5 -1 -20 -8 -33 -10 -21 -10 -27 1
-38 8 -7 12 -16 9 -19 -3 -3 -14 5 -25 16 -10 12 -26 22 -35 22 -9 0 -16 5
-16 11 0 5 5 7 12 3 6 -4 8 -3 5 3 -6 9 -73 10 -82 1 -3 -3 -1 -16 4 -29 6
-15 10 -18 10 -8 1 25 27 43 35 24 3 -8 13 -15 23 -15 17 -1 17 -2 1 -13 -11
-9 -14 -18 -7 -28 7 -12 9 -12 9 1 1 11 3 11 11 -3 15 -26 3 -33 -21 -12 -14
12 -24 15 -30 9 -12 -12 -2 -74 11 -74 5 0 5 -8 2 -17 -5 -12 -2 -15 9 -11 12
5 15 -4 14 -48 -1 -30 -2 -54 -3 -54 -1 0 -96 288 -98 300 -1 3 -16 50 -34
105 -18 55 -34 107 -36 115 -2 8 -10 33 -18 55 -8 22 -52 155 -97 295 -45 140
-109 338 -142 440 -71 220 -122 379 -217 675 -84 265 -233 732 -552 1730 -132
413 -325 1016 -429 1340 -104 325 -275 860 -380 1190 -106 330 -243 760 -305
955 -63 195 -217 679 -343 1075 -397 1242 -822 2575 -1162 3640 -187 587 -312
979 -684 2146 -119 373 -221 700 -227 729 -6 28 -16 53 -23 56 -12 5 -510
-168 -681 -237 -119 -48 -193 -101 -241 -173 -75 -114 -82 -209 -28 -396 36
-125 69 -234 191 -625 90 -290 571 -1800 698 -2190 57 -176 158 -491 225 -700
204 -637 881 -2731 1417 -4380 610 -1880 1454 -4479 1689 -5205 248 -763 334
-1020 366 -1083 28 -56 92 -116 157 -145 46 -21 71 -26 141 -26 95 0 91 -1
525 148 329 114 303 102 298 134 -4 25 -3 25 8 7 7 -11 13 -22 15 -24 2 -2 22
6 44 18 23 12 46 18 52 15 6 -4 8 -2 4 4 -8 13 59 36 75 26 8 -5 9 -3 4 6 -6
9 -2 10 15 5 14 -4 20 -3 16 3 -3 5 1 13 10 16 24 9 31 7 14 -4 -9 -6 -10 -10
-3 -10 6 0 18 7 26 15 8 8 17 12 20 9 2 -3 31 9 63 26 39 20 67 29 82 25 14
-3 21 -2 18 4 -6 10 23 25 32 16 3 -3 -1 -5 -8 -5 -7 0 -11 -2 -8 -5 9 -9 38
7 32 17 -4 6 2 7 16 3 17 -5 21 -4 15 6 -6 9 -3 11 8 6 10 -4 17 -2 17 4 0 6
7 8 16 5 9 -4 13 -2 8 5 -4 8 1 9 16 4 14 -5 20 -3 16 3 -4 6 2 8 14 5 12 -3
22 1 26 10 3 8 13 13 24 10 10 -3 29 2 42 11 14 9 28 13 31 9 4 -3 7 -2 7 4 0
15 57 34 77 26 10 -4 14 -2 10 4 -4 6 0 14 9 17 22 8 26 8 19 -4 -7 -12 4 -8
138 49 53 23 102 39 109 35 7 -5 8 -3 3 6 -6 10 -4 12 7 7 9 -3 19 -3 22 1 4
3 14 7 24 9 9 1 46 14 81 28 36 14 71 25 78 25 7 0 13 4 13 8 0 4 8 8 18 9 9
1 57 18 107 37 49 20 95 36 102 36 18 0 178 62 181 71 2 4 9 6 16 3 7 -3 95
25 197 62 101 36 227 81 279 99 52 18 113 40 135 48 22 9 123 46 225 82 102
37 271 97 375 135 105 38 411 148 680 245 270 97 706 254 970 350 750 271
1260 456 1635 591 190 69 383 140 430 157 l85 33 70 -27 c39 -15 360 -141 715
-279 760 -297 1668 -650 2040 -795 323 -125 1787 -694 2105 -817 127 -50 329
-128 450 -175 121 -47 283 -110 360 -140 77 -30 185 -71 240 -93 55 -21 201
-77 325 -125 746 -289 963 -365 1040 -365 88 0 175 36 246 103 105 97 99 85
275 662 80 264 491 1658 544 1845 7 25 68 234 135 465 119 408 237 816 510
1755 130 447 167 577 415 1435 69 237 159 547 200 690 42 143 131 454 200 690
68 237 160 556 205 710 44 154 155 537 245 850 90 314 200 694 244 845 685
2373 1101 3836 1173 4125 23 94 29 133 24 182 -12 142 -103 255 -265 330 -159
74 -864 365 -1936 798 -187 76 -448 182 -580 235 -132 54 -438 178 -680 275
-242 98 -595 240 -785 317 -190 76 -619 250 -955 385 -335 135 -749 301 -920
370 -706 285 -2251 902 -2525 1009 -162 63 -306 120 -320 125 -14 6 -77 30
-140 52 -99 35 -126 41 -195 41 -92 -1 -147 -20 -210 -75 -82 -72 -107 -128
-311 -708 -119 -336 -479 -1374 -679 -1956 -226 -658 -327 -953 -385 -1120
-32 -93 -196 -570 -363 -1060 -168 -489 -382 -1115 -476 -1389 -94 -275 -173
-502 -176 -504 -2 -3 -7 1 -10 9 -5 13 -286 1045 -410 1504 -64 239 -747 2738
-869 3180 -216 788 -254 923 -357 1290 -196 697 -202 712 -324 823 -79 72
-197 104 -302 82z m-383 -1549 c49 -25 85 -83 109 -172 36 -129 24 -206 -40
-264 -64 -58 -161 -70 -219 -27 -93 68 -145 275 -95 376 23 45 54 71 111 91
54 19 93 18 134 -4z m-806 -282 c30 -23 56 -69 56 -96 0 -10 -9 -36 -20 -58
-24 -48 -24 -45 -1 -45 30 0 79 -52 86 -93 19 -101 -59 -184 -184 -194 -62 -5
-106 15 -136 61 -21 32 -14 42 36 57 37 11 41 11 55 -9 20 -29 72 -29 108 -1
30 23 33 54 10 88 -15 21 -22 23 -71 18 -51 -5 -55 -4 -64 19 -15 40 -11 54
18 65 66 25 87 88 38 111 -37 17 -76 0 -97 -42 -18 -35 -78 -67 -100 -54 -14
9 0 73 23 111 44 71 186 107 243 62z m-787 -269 c44 -27 66 -81 60 -148 -6
-53 -48 -158 -87 -213 -12 -16 -18 -29 -14 -29 4 0 45 12 91 27 92 30 106 26
101 -27 -3 -22 -17 -29 -158 -78 -144 -49 -156 -52 -167 -35 -22 29 -15 48 48
148 89 142 107 208 73 260 -33 51 -114 18 -114 -46 0 -25 -6 -32 -35 -45 -55
-23 -65 -19 -65 25 0 76 35 130 105 162 53 25 121 24 162 -1z m-773 -237 c28
-96 126 -443 126 -448 0 -8 -65 -35 -83 -35 -10 0 -30 54 -62 168 -64 226 -59
214 -91 201 -33 -12 -40 -5 -49 42 l-7 36 69 25 c84 32 90 32 97 11z m2725
-215 c5 -18 32 -116 60 -218 27 -102 52 -192 56 -201 5 -13 -4 -21 -40 -34
-27 -11 -49 -14 -54 -9 -6 7 -37 116 -99 348 -4 14 -11 17 -38 13 -38 -6 -40
-5 -49 44 l-7 37 74 25 c40 14 76 26 80 26 3 1 11 -14 17 -31z m-682 -219 c30
-11 83 -57 83 -71 0 -5 -16 -16 -37 -24 -33 -14 -39 -14 -68 2 -74 39 -138
-20 -120 -112 l6 -37 32 31 c38 36 75 52 123 52 70 0 114 -40 135 -124 22 -88
-30 -169 -129 -201 -77 -25 -118 -16 -167 38 -52 57 -89 165 -88 257 0 100 34
150 121 182 57 20 72 21 109 7z m-3873 -102 c7 -28 14 -36 25 -32 53 21 68 18
80 -15 13 -40 10 -45 -35 -60 -28 -10 -34 -15 -28 -32 3 -11 14 -49 24 -84 25
-86 25 -86 74 -79 42 7 43 6 50 -25 8 -42 4 -47 -53 -64 -95 -28 -129 -3 -166
122 -15 48 -28 93 -31 101 -2 8 -12 11 -25 8 -16 -4 -24 2 -36 30 -15 36 -12
44 21 56 6 2 5 21 -1 46 -11 42 -11 43 20 57 50 22 71 15 81 -29z m-212 10
c23 -37 -10 -97 -54 -97 -28 0 -58 28 -58 53 0 12 10 31 22 45 18 18 29 22 52
18 17 -4 34 -12 38 -19z m47 -184 c11 -38 34 -113 51 -168 16 -55 30 -105 30
-111 0 -15 -80 -48 -91 -37 -9 9 -111 345 -106 350 4 4 79 31 89 32 4 1 16
-29 27 -66z m-488 -49 l23 -76 19 26 c42 58 152 85 215 52 63 -33 102 -104
102 -186 0 -118 -93 -202 -207 -186 -38 5 -43 3 -41 -11 4 -21 -76 -54 -91
-38 -7 9 -141 444 -141 460 0 8 61 34 82 35 12 0 22 -20 39 -76z m3721 47 c76
-30 95 -96 53 -193 -5 -13 -3 -18 9 -18 9 0 30 -13 47 -28 27 -24 33 -37 36
-83 6 -65 -20 -111 -82 -146 -79 -44 -163 -42 -215 7 -43 40 -39 64 11 80 39
13 42 13 59 -10 15 -20 23 -22 61 -17 48 6 69 27 69 67 0 54 -29 70 -101 57
-35 -7 -38 -6 -48 24 -13 38 -9 45 35 64 46 19 63 56 40 90 -10 15 -26 25 -40
25 -30 0 -72 -33 -80 -63 -5 -21 -52 -47 -84 -47 -17 0 -15 56 4 96 34 72 155
123 226 95z m-4260 -396 c37 -121 68 -227 68 -236 0 -10 -15 -20 -39 -27 -50
-16 -61 -15 -61 3 0 22 -6 19 -43 -21 -63 -69 -169 -74 -235 -13 -107 100 -87
265 39 329 43 22 75 25 115 10 15 -6 28 -9 30 -7 2 2 -5 32 -16 68 -11 35 -20
71 -20 80 0 16 51 39 80 35 10 -1 36 -69 82 -221z m336 200 c48 -21 75 -47 97
-95 14 -30 15 -43 7 -53 -7 -8 -62 -31 -124 -52 -62 -21 -117 -42 -122 -46 -6
-5 -2 -17 9 -29 27 -29 89 -27 120 5 14 13 25 28 25 34 0 13 92 43 102 33 16
-16 -23 -91 -63 -126 -103 -88 -239 -70 -297 39 -52 98 -19 224 72 271 67 35
121 41 174 19z m3191 -206 c21 -74 43 -133 47 -132 5 0 17 3 28 5 14 2 22 -6
31 -34 13 -36 13 -36 -16 -49 -21 -8 -28 -17 -24 -28 4 -9 9 -28 12 -43 5 -25
1 -30 -32 -44 -48 -20 -62 -13 -71 30 -3 20 -12 36 -19 36 -7 0 -57 -15 -112
-34 -54 -19 -102 -31 -106 -27 -5 5 -10 26 -13 47 -3 30 11 81 59 213 l62 174
50 18 c28 9 53 13 58 10 4 -4 25 -68 46 -142z m2479 -211 c17 -62 34 -126 38
-141 6 -25 10 -28 35 -23 32 6 34 4 43 -40 6 -26 3 -32 -19 -42 -18 -8 -25
-18 -21 -30 20 -67 20 -68 -26 -85 -24 -10 -46 -17 -50 -17 -3 0 -11 20 -17
44 l-11 44 -110 -36 c-60 -20 -112 -33 -115 -30 -4 4 -9 24 -11 45 -4 30 9 76
58 212 l64 175 49 17 c28 10 53 18 56 18 4 1 20 -50 37 -111z m-819 -190 c20
-64 111 -403 111 -416 0 -15 -66 -46 -84 -39 -7 3 -34 86 -61 186 l-50 181
-32 -6 c-29 -5 -34 -3 -43 22 -17 44 -9 55 55 79 83 31 92 31 104 -7z m-634
-232 c30 -20 55 -76 55 -122 0 -46 -32 -135 -71 -195 -17 -28 -30 -52 -27 -54
2 -3 41 8 86 22 45 15 84 25 86 22 3 -3 7 -20 8 -38 l3 -33 -153 -54 c-85 -30
-158 -52 -162 -49 -5 3 -11 18 -15 34 -5 24 2 41 38 93 94 137 129 247 92 288
-39 43 -115 9 -115 -52 0 -22 -6 -31 -27 -39 -69 -26 -85 -9 -63 71 30 111
171 167 265 106z m-798 -265 c44 -27 77 -90 104 -196 39 -158 8 -234 -109
-269 -69 -21 -113 -13 -156 31 -33 32 -33 47 -1 61 34 16 56 15 79 -3 27 -21
59 -19 90 6 21 16 26 29 26 62 0 65 -11 73 -49 38 -36 -33 -83 -47 -134 -37
-47 9 -77 33 -98 80 -44 98 -4 193 96 230 57 21 114 19 152 -3z m13068 -216
c176 -70 333 -134 349 -142 49 -25 127 -105 153 -158 16 -30 28 -73 31 -111 4
-56 -6 -96 -137 -535 -78 -261 -149 -491 -158 -512 -21 -48 -88 -110 -139
-128 -21 -7 -69 -13 -105 -13 -60 1 -95 13 -400 134 -184 73 -354 147 -379
165 -58 41 -103 100 -130 172 -34 90 -45 44 180 780 54 177 105 334 113 350
31 59 77 95 149 119 84 27 131 16 473 -121z m-10559 -34 c90 -55 145 -272 94
-371 -11 -22 -39 -52 -62 -67 -35 -24 -52 -28 -109 -28 -62 0 -71 3 -99 30
-40 38 -64 84 -84 162 -26 100 -17 167 31 224 55 64 166 89 229 50z m-770
-287 c40 -42 44 -80 15 -137 -19 -37 -19 -37 1 -37 29 0 76 -52 83 -93 9 -48
1 -78 -31 -117 -85 -100 -264 -98 -289 2 -6 24 -3 28 34 39 38 11 43 11 66
-11 60 -57 161 27 112 94 -14 19 -36 23 -89 12 -39 -7 -42 -5 -52 37 -6 25 -3
29 29 42 64 27 82 90 33 116 -31 16 -77 -7 -95 -48 -13 -33 -45 -53 -84 -53
-15 0 -19 7 -19 30 0 88 89 159 199 160 49 0 57 -3 87 -36z m-727 -422 c33
-121 61 -224 61 -229 0 -12 -77 -46 -89 -39 -4 3 -29 86 -56 185 l-50 180 -36
-5 c-35 -6 -37 -5 -43 31 -4 20 -4 40 -1 44 7 7 124 49 141 50 6 1 39 -96 73
-217z m-712 -52 c44 -27 79 -86 104 -176 31 -113 15 -192 -50 -247 -63 -53
-160 -61 -220 -17 -41 28 -79 104 -97 194 -27 128 11 214 111 253 48 18 116
15 152 -7z m14415 -123 c6 -12 13 -62 16 -113 4 -76 1 -103 -17 -160 -45 -139
-142 -239 -189 -192 -21 21 -13 42 38 103 70 83 95 165 84 273 -8 85 -7 104 8
113 17 11 48 -2 60 -24z m150 -8 c37 -74 32 -263 -8 -356 -38 -88 -52 -110
-102 -164 -57 -62 -82 -71 -113 -43 -22 19 -15 40 23 72 38 32 103 144 122
211 18 61 21 198 6 251 -14 49 -5 72 28 68 19 -2 32 -13 44 -39z m-296 5 c13
-18 17 -47 17 -109 0 -72 -4 -92 -28 -139 -53 -105 -123 -145 -152 -86 -11 22
-8 28 26 65 53 57 75 129 67 212 -4 35 -4 68 -1 73 12 20 54 10 71 -16z m-147
2 c19 -23 25 -102 11 -152 -14 -48 -69 -114 -95 -114 -17 0 -55 35 -55 49 0 6
15 24 33 40 30 29 32 35 33 99 1 38 4 74 8 81 10 15 51 14 65 -3z m-7144
-2142 c176 -70 325 -131 332 -136 9 -7 8 -21 -4 -56 -9 -26 -19 -51 -23 -55
-4 -4 -156 52 -339 124 l-333 132 7 34 c8 47 23 83 32 83 5 0 152 -57 328
-126z m-121 -400 c177 -70 326 -131 332 -136 15 -11 -14 -108 -33 -115 -7 -3
-128 41 -269 97 -141 56 -260 98 -264 94 -5 -5 -36 -97 -70 -204 -34 -107 -65
-198 -69 -202 -8 -8 -146 47 -146 59 0 5 38 127 85 271 59 182 89 262 99 262
8 0 159 -57 335 -126z m-4240 104 c14 -46 106 -391 106 -398 0 -8 -54 -30 -75
-30 -7 0 -22 38 -35 85 -13 47 -27 85 -32 85 -15 0 -162 -52 -172 -61 -6 -5
-1 -40 12 -87 12 -44 22 -84 22 -89 0 -9 -79 -38 -84 -31 -2 2 -71 248 -113
399 -3 11 5 20 28 28 58 20 63 17 82 -62 10 -39 21 -75 25 -79 8 -8 160 38
176 53 8 7 -11 104 -30 153 -4 12 3 20 27 31 42 18 59 19 63 3z m5251 -123 c3
-38 19 -178 35 -310 16 -132 32 -267 35 -300 3 -33 16 -143 29 -245 13 -102
20 -189 16 -193 -3 -4 -39 5 -78 20 -81 31 -77 24 -88 168 -3 50 -11 95 -17
102 -13 13 -364 153 -385 153 -12 0 -111 -99 -140 -141 -7 -11 -18 -19 -25
-19 -28 0 -148 54 -145 66 3 11 84 97 544 574 56 58 123 129 149 158 27 29 52
49 56 45 4 -4 10 -39 14 -78z m-5739 -61 c8 -31 3 -36 -58 -58 -27 -10 -48
-20 -48 -22 0 -2 20 -77 45 -166 25 -89 45 -167 45 -173 0 -7 -11 -17 -25 -23
-56 -26 -58 -23 -106 149 -24 88 -47 166 -51 172 -5 9 -21 7 -59 -6 -55 -20
-67 -16 -71 22 -3 23 7 28 147 77 83 29 156 53 162 53 7 1 16 -11 19 -25z
m6521 -181 c208 -83 221 -89 273 -142 72 -72 93 -117 98 -209 5 -91 -13 -143
-69 -200 -47 -47 -110 -72 -188 -73 -44 -1 -51 -4 -46 -18 18 -44 38 -124 65
-258 16 -81 36 -168 45 -192 8 -24 14 -46 11 -48 -2 -2 -40 11 -86 29 -63 25
-84 38 -92 57 -5 15 -26 103 -45 196 -49 241 -66 273 -171 314 -39 16 -54 18
-57 8 -2 -6 -29 -93 -61 -192 -31 -99 -58 -182 -60 -184 -5 -5 -144 49 -144
56 0 4 283 898 295 931 2 6 7 12 10 12 3 0 103 -39 222 -87z m-6938 -145 c29
-106 56 -201 58 -210 4 -12 -5 -20 -36 -29 -25 -7 -45 -9 -50 -3 -4 5 -24 68
-44 139 -20 72 -46 161 -56 198 l-20 68 32 14 c60 26 58 29 116 -177z m-230
-85 c30 -109 56 -203 58 -209 2 -7 -16 -19 -42 -27 -35 -12 -47 -13 -50 -4 -3
7 -18 61 -35 121 -16 60 -32 111 -34 114 -5 5 -10 -19 -31 -173 -9 -60 -19
-113 -23 -117 -4 -4 -21 -10 -37 -13 -28 -4 -37 3 -115 96 -46 56 -86 97 -88
91 -1 -5 11 -58 28 -118 16 -60 30 -112 30 -116 0 -10 -79 -33 -86 -25 -3 3
-32 97 -64 207 l-58 202 31 13 c72 29 71 29 123 -31 133 -156 167 -194 174
-194 7 0 19 75 42 249 l12 94 40 18 c23 10 48 19 56 19 11 0 29 -52 69 -197z
m-719 -68 c28 -14 50 -42 50 -63 0 -5 -20 -15 -44 -22 -37 -10 -47 -10 -68 4
-32 21 -78 8 -98 -28 -14 -26 -14 -28 8 -46 19 -16 39 -19 106 -19 97 0 129
-12 151 -56 27 -58 17 -101 -35 -152 -54 -53 -161 -79 -213 -52 -32 17 -67 51
-67 65 0 7 20 19 44 27 42 14 46 14 62 -4 22 -25 65 -24 98 2 28 22 35 62 14
76 -7 4 -59 10 -115 13 -93 5 -105 8 -128 31 -34 33 -42 86 -21 130 39 82 180
133 256 94z m8923 -101 c248 -56 443 -263 487 -516 32 -183 -67 -390 -227
-475 -98 -53 -163 -66 -283 -60 -169 8 -299 67 -424 191 -118 117 -176 253
-177 413 -1 103 19 173 72 252 117 175 321 247 552 195z m1290 -96 c20 -23 22
-59 6 -75 -9 -9 -9 -23 1 -58 12 -43 11 -48 -10 -78 -13 -18 -32 -44 -43 -59
l-19 -26 40 -114 c22 -62 58 -165 80 -228 86 -248 195 -559 224 -640 75 -211
138 -406 136 -419 -3 -17 -77 175 -252 659 -203 562 -266 739 -266 750 0 6 18
35 41 65 34 46 40 59 34 85 -4 17 -18 38 -33 48 -56 35 -66 68 -31 103 25 25
64 19 92 -13z m-10849 -5 c3 -10 28 -99 57 -198 28 -99 53 -185 56 -191 2 -6
-16 -19 -41 -28 l-46 -18 -116 89 c-146 111 -154 117 -159 112 -2 -3 13 -61
34 -129 21 -69 35 -130 30 -135 -8 -11 -79 -39 -84 -33 -1 1 -28 89 -58 193
-31 105 -59 198 -62 208 -6 13 1 21 29 32 19 8 43 15 52 15 9 0 74 -45 146
-101 71 -56 131 -99 133 -97 3 3 -15 69 -60 221 l-14 48 32 14 c43 19 65 18
71 -2z m10548 -158 c34 -14 68 -25 75 -25 23 0 70 -28 77 -46 3 -9 1 -31 -6
-50 -9 -25 -9 -42 1 -74 11 -39 11 -43 -18 -79 -17 -22 -31 -50 -31 -63 0 -13
14 -62 31 -109 17 -46 66 -185 109 -309 43 -124 94 -272 114 -330 72 -204 126
-373 121 -378 -5 -6 -6 -5 -92 228 -36 96 -68 179 -73 183 -4 5 -30 -7 -56
-25 -146 -102 -364 -248 -372 -248 -10 0 -318 117 -339 129 -11 6 6 21 64 56
43 27 103 64 133 83 92 58 118 75 298 187 134 84 172 112 166 124 -3 9 -16 45
-29 81 -13 36 -26 72 -30 82 -3 9 -30 26 -58 38 -66 28 -84 45 -92 82 -4 18
-18 37 -36 46 -28 17 -49 50 -49 77 0 24 44 47 75 39 40 -10 60 -47 45 -83
-16 -41 -4 -87 30 -111 34 -24 65 -27 56 -4 -21 54 -186 515 -186 519 0 8 8 6
72 -20z m-11041 -220 c32 -110 58 -203 59 -207 0 -3 -20 -13 -45 -22 -35 -11
-47 -12 -50 -3 -2 7 -14 45 -25 85 -15 48 -27 72 -37 72 -19 0 -162 -51 -168
-59 -2 -4 4 -31 14 -61 36 -108 36 -114 -2 -128 -18 -7 -40 -12 -48 -12 -10 0
-32 61 -71 198 -32 109 -58 203 -58 209 0 12 52 33 79 33 13 0 22 -20 36 -76
10 -41 22 -77 25 -79 8 -5 161 44 174 56 5 4 -1 38 -13 77 -11 39 -21 75 -21
82 0 13 58 41 79 37 9 -1 35 -74 72 -202z m11418 99 c22 -29 27 -59 11 -69 -5
-3 -10 -14 -10 -23 0 -19 119 -363 130 -375 7 -7 73 33 298 184 l72 49 88 -36
c48 -20 106 -45 129 -55 24 -11 55 -24 69 -29 l26 -10 -23 -19 c-25 -18 -455
-299 -521 -340 -21 -12 -38 -28 -38 -36 0 -7 11 -41 24 -76 34 -91 132 -375
172 -502 19 -60 38 -115 41 -124 4 -10 2 -14 -4 -10 -6 4 -14 19 -18 34 -3 16
-13 42 -20 58 -8 17 -30 73 -49 125 -19 52 -101 280 -183 505 -82 226 -167
461 -189 524 -29 86 -45 117 -64 129 -52 32 -64 70 -33 104 24 27 68 23 92 -8z
m-12010 -138 c133 -69 151 -257 35 -368 -50 -47 -151 -83 -208 -73 -91 14
-157 68 -182 151 -15 45 -16 61 -5 108 21 94 96 173 189 196 49 12 132 5 171
-14z m11872 -96 c30 -29 33 -58 9 -84 -8 -8 7 -55 125 -391 116 -329 235 -688
230 -693 -2 -2 -9 6 -14 19 -23 54 -222 593 -264 714 -91 259 -116 318 -153
351 -40 37 -45 75 -12 98 32 23 45 20 79 -14z m-12399 -201 c51 -162 55 -207
24 -254 -38 -59 -158 -86 -214 -49 -60 39 -67 74 -19 92 46 16 56 15 76 -9 21
-26 69 -17 77 15 2 11 -16 90 -41 175 -25 84 -43 156 -40 160 10 9 69 30 80
27 5 -1 31 -72 57 -157z m9064 96 c-3 -9 -31 -95 -62 -193 -31 -97 -58 -179
-60 -181 -2 -3 -17 2 -33 10 l-28 14 43 135 c24 74 44 136 44 138 0 2 -17 2
-37 0 -34 -3 -38 -1 -38 22 0 21 8 27 70 46 86 27 109 29 101 9z m559 -197
c54 -20 113 -76 141 -133 51 -105 16 -210 -86 -262 -109 -56 -260 1 -323 121
-27 52 -29 146 -4 194 45 83 168 119 272 80z m437 -173 c106 -42 113 -46 111
-71 -1 -14 -4 -28 -6 -31 -3 -2 -44 12 -91 31 -78 31 -88 33 -93 18 -3 -9 -12
-32 -19 -51 -8 -18 -12 -36 -9 -40 2 -4 36 -20 75 -35 63 -25 70 -30 64 -50
-10 -35 -16 -36 -79 -10 -33 14 -66 23 -74 22 -8 -2 -24 -35 -36 -78 -20 -68
-25 -75 -46 -72 -13 1 -27 6 -32 11 -5 5 16 87 47 182 30 96 57 184 61 197 3
12 8 22 10 22 2 0 54 -20 117 -45z m564 -257 c-29 -114 -113 -368 -121 -368
-6 0 -20 7 -32 15 -18 12 -20 20 -14 38 5 13 25 74 44 136 l36 113 -38 -7
c-34 -6 -39 -4 -44 16 -4 13 -5 25 -3 26 7 7 143 52 160 52 14 1 17 -4 12 -21z
m266 -69 c100 -45 103 -251 5 -353 -50 -53 -86 -64 -141 -45 -49 17 -82 63
-92 127 -14 90 43 233 105 267 31 17 91 19 123 4z m387 -157 c47 -35 63 -79
58 -162 -8 -158 -111 -268 -210 -226 -111 46 -127 226 -31 352 49 63 126 79
183 36z m1511 -262 c0 -5 -2 -10 -4 -10 -3 0 -8 5 -11 10 -3 6 -1 10 4 10 6 0
11 -4 11 -10z m-8694 -127 c-3 -32 -9 -94 -12 -138 -3 -44 -9 -83 -13 -87 -4
-4 -21 -10 -38 -14 -29 -6 -34 -2 -94 76 -102 131 -96 120 -74 136 10 8 22 14
27 14 4 0 34 -36 67 -80 33 -44 62 -77 64 -73 3 5 8 51 12 104 6 86 9 98 28
107 37 18 40 14 33 -45z m-280 -105 c-3 -35 -8 -98 -12 -140 -6 -72 -8 -77
-35 -88 -15 -7 -32 -10 -38 -9 -15 6 -161 193 -161 207 0 6 4 12 9 12 5 0 16
3 24 6 10 3 34 -19 73 -70 32 -42 61 -76 65 -76 3 0 10 45 14 101 6 90 9 101
28 109 37 15 39 12 33 -52z m-267 -85 c23 -15 24 -16 6 -29 -13 -10 -34 -12
-71 -8 -47 6 -55 4 -78 -19 -43 -43 -28 -117 26 -136 37 -13 56 -6 95 35 50
53 87 43 53 -14 -57 -93 -189 -104 -240 -20 -37 61 -20 134 42 182 52 39 116
43 167 9z m491 -270 c0 -27 -12 -38 -44 -40 -50 -4 -57 -10 -50 -40 10 -41 13
-44 35 -33 16 9 19 7 19 -9 0 -11 -6 -26 -12 -33 -7 -7 -14 -24 -16 -38 -3
-28 -23 -83 -28 -77 -6 6 -64 216 -64 232 0 9 24 22 63 34 78 25 97 26 97 4z
m-200 -51 c0 -5 -9 -35 -20 -67 -26 -75 -26 -76 13 -103 69 -48 82 -63 66 -73
-25 -15 -56 -10 -87 16 -17 14 -33 25 -36 25 -3 0 -11 -21 -17 -46 -9 -33 -18
-48 -36 -55 -41 -15 -43 -11 -17 64 l25 72 -23 20 c-13 11 -39 32 -58 48 -29
22 -32 29 -20 37 25 16 51 11 86 -15 18 -14 35 -25 37 -25 3 0 10 20 16 45 10
42 31 64 59 65 6 0 12 -4 12 -8z m-257 -96 c7 -18 -7 -30 -56 -47 -34 -12 -37
-16 -32 -39 9 -34 11 -35 48 -22 46 17 57 15 57 -7 0 -13 -11 -23 -35 -31 -43
-14 -48 -22 -35 -54 l9 -25 47 16 c39 13 48 13 55 2 5 -9 4 -18 -4 -25 -12
-11 -138 -56 -143 -51 -8 8 -65 222 -62 234 2 9 30 26 63 38 74 28 81 29 88
11z m8581 -4092 c106 -20 157 -38 246 -86 113 -61 190 -119 265 -200 189 -203
276 -443 252 -698 -16 -181 -87 -334 -212 -456 -223 -219 -588 -267 -910 -118
-176 81 -336 227 -424 387 -70 129 -99 208 -117 331 -18 118 -12 205 23 326
62 220 176 357 373 452 47 22 92 44 101 48 20 11 121 29 174 33 64 4 144 -3
229 -19z m-11842 -1301 c-6 -2 -10 -9 -6 -14 3 -5 0 -9 -5 -9 -6 0 -11 -5 -11
-11 0 -6 9 -8 21 -4 18 6 19 5 7 -14 -8 -14 -19 -19 -32 -15 -11 4 -16 2 -12
-4 3 -5 -1 -13 -10 -16 -8 -3 -12 -11 -9 -16 5 -8 11 -7 20 0 15 13 35 6 35
-12 0 -6 -9 -8 -20 -5 -22 6 -29 -18 -7 -26 9 -4 9 -6 -1 -6 -8 -1 -16 8 -19
19 -3 11 -9 17 -14 14 -5 -3 -9 8 -9 25 0 16 6 32 13 34 7 4 6 6 -5 6 -9 1
-19 -5 -22 -11 -3 -7 -3 -2 0 12 6 21 34 60 34 46 0 -3 10 -1 23 4 12 5 27 9
32 9 6 -1 4 -3 -3 -6z m43 -95 c6 -4 2 -8 -7 -8 -10 0 -18 7 -18 17 0 9 3 12
8 7 4 -5 12 -12 17 -16z m-125 -30 c0 -4 -8 -12 -17 -18 -15 -8 -13 -9 8 -4
15 3 30 1 34 -5 3 -7 3 -11 -2 -10 -27 5 -55 -2 -50 -13 3 -9 -7 -13 -30 -13
l-34 0 26 21 c15 12 23 26 20 35 -4 11 1 15 20 15 14 0 25 -3 25 -8z m-80 -27
c0 -5 -7 -14 -15 -21 -10 -9 -15 -9 -15 -1 0 6 5 11 11 11 5 0 7 5 4 10 -3 6
-1 10 4 10 6 0 11 -4 11 -9z m80 -46 c0 -8 -4 -15 -10 -15 -5 0 -7 7 -4 15 4
8 8 15 10 15 2 0 4 -7 4 -15z m126 -12 c-7 -7 -26 7 -26 19 0 6 6 6 15 -2 9
-7 13 -15 11 -17z m-348 -49 c-4 -3 -12 5 -18 18 -12 22 -12 22 6 6 10 -10 15
-20 12 -24z m317 16 c-3 -5 -14 -10 -23 -10 -15 0 -15 2 -2 10 20 13 33 13 25
0z m-285 -4 c0 -3 -4 -8 -10 -11 -5 -3 -10 -1 -10 4 0 6 5 11 10 11 6 0 10 -2
10 -4z m45 -16 c-2 -25 -15 -39 -15 -17 0 21 -16 22 -24 2 -3 -8 -10 -15 -16
-15 -5 0 0 11 12 25 26 30 45 32 43 5z m-84 -22 c10 -18 9 -20 -5 -15 -25 10
-19 -8 7 -21 20 -10 18 -10 -10 -5 -28 5 -34 2 -44 -20 -6 -14 -18 -28 -25
-31 -18 -7 -18 11 0 21 13 8 40 50 42 68 1 6 2 13 3 18 2 15 21 6 32 -15z
m283 6 c-7 -3 -10 -15 -8 -27 2 -12 1 -15 -2 -7 -4 8 -11 21 -17 28 -7 9 -3
12 14 11 13 0 19 -3 13 -5z m-54 -19 c-14 -17 -30 -20 -30 -4 0 5 4 8 9 4 5
-3 12 -1 16 5 3 5 9 10 12 10 3 0 0 -7 -7 -15z m-313 -17 c3 6 9 9 15 6 5 -3
0 -13 -12 -21 -24 -17 -25 -17 -34 17 -7 25 -7 25 10 5 11 -14 18 -16 21 -7z
m213 12 c0 -5 -2 -10 -4 -10 -3 0 -8 5 -11 10 -3 6 -1 10 4 10 6 0 11 -4 11
-10z m-77 -7 c-7 -2 -19 -2 -25 0 -7 3 -2 5 12 5 14 0 19 -2 13 -5z m47 -14
c0 -11 -4 -17 -10 -14 -5 3 -10 13 -10 21 0 8 5 14 10 14 6 0 10 -9 10 -21z
m-30 -3 c0 -3 -4 -8 -10 -11 -5 -3 -10 -1 -10 4 0 6 5 11 10 11 6 0 10 -2 10
-4z m87 -18 c-3 -8 -6 -5 -6 6 -1 11 2 17 5 13 3 -3 4 -12 1 -19z m-179 -12
c1 -13 -5 -27 -13 -30 -18 -6 -18 -5 -5 28 12 32 15 32 18 2z m239 -8 c-15 -9
-19 -4 -11 16 5 14 9 15 15 5 5 -8 3 -17 -4 -21z m-347 12 c8 -5 11 -12 8 -16
-4 -3 -14 1 -23 10 -18 17 -9 21 15 6z m-30 -40 c0 -5 -2 -10 -4 -10 -3 0 -8
5 -11 10 -3 6 -1 10 4 10 6 0 11 -4 11 -10z m92 -12 c-7 -7 -12 -8 -12 -2 0
14 12 26 19 19 2 -3 -1 -11 -7 -17z m-162 -8 c0 -5 -2 -10 -4 -10 -2 0 -12 -3
-20 -6 -12 -5 -15 -2 -10 10 7 17 34 22 34 6z m194 -9 c-21 -21 -29 -19 -21 4
4 8 14 15 23 15 16 0 16 -2 -2 -19z m-129 -11 c-3 -5 -12 -10 -18 -10 -7 0 -6
4 3 10 19 12 23 12 15 0z m45 1 c0 -5 -9 -11 -19 -14 -14 -3 -18 -1 -14 9 6
15 33 19 33 5z m48 -3 c-2 -6 -10 -13 -16 -14 -7 -1 -8 0 -2 3 5 2 8 9 4 14
-3 5 0 9 6 9 7 0 10 -5 8 -12z m134 -20 c-8 -8 -9 -4 -5 13 4 13 8 18 11 10 2
-7 -1 -18 -6 -23z m-65 2 c-1 -11 -7 -22 -14 -24 -9 -4 -10 0 -1 19 14 30 17
31 15 5z m118 0 c3 -5 1 -10 -4 -10 -6 0 -11 5 -11 10 0 6 2 10 4 10 3 0 8 -4
11 -10z m-230 -39 c-3 -12 -11 -18 -17 -15 -7 4 -6 9 1 14 7 4 9 15 5 26 -5
15 -4 16 6 8 7 -7 9 -21 5 -33z m50 19 c3 -6 -1 -7 -9 -4 -18 7 -21 14 -7 14
6 0 13 -4 16 -10z m-142 -43 c3 -8 1 -20 -4 -28 -6 -10 -9 -7 -9 14 0 29 5 35
13 14z m781 -149 c3 -16 4 -28 2 -28 -6 0 -56 159 -55 178 1 16 38 -91 53
-150z m-813 139 c-1 -12 -15 -9 -19 4 -3 6 1 10 8 8 6 -3 11 -8 11 -12z m-82
-14 c0 -11 -3 -13 -6 -5 -6 14 -39 16 -48 2 -3 -5 -11 -10 -18 -10 -6 0 -2 7
9 15 27 21 64 19 63 -2z m321 7 c0 -5 -5 -10 -11 -10 -5 0 -7 5 -4 10 3 6 8
10 11 10 2 0 4 -4 4 -10z m-310 -52 c0 -5 -2 -8 -5 -8 -7 0 -45 39 -45 45 0 9
49 -29 50 -37z m134 26 c3 -8 2 -12 -4 -9 -6 3 -10 10 -10 16 0 14 7 11 14 -7z
m-234 -14 c0 -5 -2 -10 -4 -10 -3 0 -8 5 -11 10 -3 6 -1 10 4 10 6 0 11 -4 11
-10z m-44 -37 c-10 -10 -19 5 -10 18 6 11 8 11 12 0 2 -7 1 -15 -2 -18z m74
17 c0 -5 -2 -10 -4 -10 -3 0 -8 5 -11 10 -3 6 -1 10 4 10 6 0 11 -4 11 -10z
m147 -5 c0 -8 -4 -15 -9 -15 -4 0 -8 7 -8 15 0 8 4 15 8 15 5 0 9 -7 9 -15z
m-35 -17 c-7 -7 -12 -8 -12 -2 0 14 12 26 19 19 2 -3 -1 -11 -7 -17z m-65 -4
c-3 -3 -12 -4 -19 -1 -8 3 -5 6 6 6 11 1 17 -2 13 -5z m-127 -12 c0 -4 -9 -8
-20 -9 -11 -1 -18 2 -15 8 7 11 35 12 35 1z m305 -2 c3 -5 1 -10 -4 -10 -6 0
-11 5 -11 10 0 6 2 10 4 10 3 0 8 -4 11 -10z m-165 -10 c0 -5 -10 -10 -22 -10
-19 0 -20 2 -8 10 19 13 30 13 30 0z m64 -6 c3 -8 2 -12 -4 -9 -6 3 -10 10
-10 16 0 14 7 11 14 -7z m-254 -13 c0 -14 -7 -19 -25 -17 -25 1 -45 26 -22 26
7 0 19 -6 26 -12 11 -11 13 -10 8 5 -4 9 -2 17 3 17 6 0 10 -9 10 -19z m128
-6 c-2 -1 -12 -7 -24 -13 -15 -8 -21 -8 -21 1 0 7 11 13 24 13 14 1 23 1 21
-1z m49 -16 c-14 -8 -16 -14 -6 -25 7 -8 7 -14 1 -14 -5 0 -13 8 -16 17 -6 16
9 33 29 33 6 -1 2 -5 -8 -11z m-137 -32 c0 -5 -4 -5 -10 -2 -5 3 -10 14 -10
23 0 15 2 15 10 2 5 -8 10 -19 10 -23z m-180 19 c0 -2 -7 -6 -15 -10 -8 -3
-15 -1 -15 4 0 6 7 10 15 10 8 0 15 -2 15 -4z m-120 -63 c0 -11 11 -17 30 -15
3 0 6 -8 7 -18 3 -30 -16 -34 -28 -6 -7 14 -21 29 -33 32 -40 12 -49 26 -24
39 19 10 25 9 36 -3 6 -9 12 -22 12 -29z m340 43 c0 -2 -7 -7 -16 -10 -8 -3
-12 -2 -9 4 6 10 25 14 25 6z m-269 -30 c14 8 11 -32 -4 -44 -10 -9 -13 -3
-14 26 0 20 2 31 4 24 3 -6 9 -10 14 -6z m62 3 c-8 -8 -16 -8 -30 0 -16 9 -14
10 12 11 21 0 26 -3 18 -11z m56 -20 c-13 -26 -20 -21 -12 9 3 12 9 19 14 16
5 -3 4 -14 -2 -25z m81 5 c0 -2 -9 -4 -21 -4 -11 0 -18 4 -14 10 5 8 35 3 35
-6z m80 -14 c0 -5 -2 -10 -4 -10 -3 0 -8 5 -11 10 -3 6 -1 10 4 10 6 0 11 -4
11 -10z m-407 -18 c-20 -21 -28 -20 -20 3 4 8 13 15 22 15 13 0 12 -3 -2 -18z
m217 -1 c0 -10 -37 -7 -47 4 -5 4 -3 5 4 1 6 -3 14 -2 18 4 7 11 25 4 25 -9z
m280 -2 c0 -6 -4 -7 -10 -4 -5 3 -10 11 -10 16 0 6 5 7 10 4 6 -3 10 -11 10
-16z m-182 -14 c-3 -3 -9 2 -12 12 -6 14 -5 15 5 6 7 -7 10 -15 7 -18z m-255
-10 c22 -31 11 -33 -14 -3 l-19 21 -1 -24 c-1 -17 -3 -19 -6 -6 -2 9 -9 15
-14 12 -5 -4 -9 1 -9 9 0 25 43 18 63 -9z m77 1 c0 -3 -4 -8 -10 -11 -5 -3
-10 -1 -10 4 0 6 5 11 10 11 6 0 10 -2 10 -4z m60 -11 c0 -8 -7 -15 -15 -15
-16 0 -20 12 -8 23 11 12 23 8 23 -8z m70 4 c0 -5 -4 -8 -9 -5 -5 4 -12 0 -14
-6 -3 -8 -6 -6 -6 5 -1 9 6 17 14 17 8 0 15 -5 15 -11z m-166 -33 c-3 -9 -10
-16 -15 -16 -5 0 -4 9 3 20 14 22 21 20 12 -4z m-38 -17 c0 -10 -4 -15 -8 -13
-4 3 -8 0 -8 -5 0 -6 -5 -11 -11 -11 -5 0 -7 5 -3 11 4 7 -2 9 -17 7 -18 -2
-23 -9 -22 -26 2 -14 -3 -22 -13 -22 -11 0 -14 5 -10 16 3 9 6 22 6 30 0 9 5
12 10 9 6 -3 13 0 16 9 8 22 60 18 60 -5z m123 18 c-2 -1 -14 -11 -26 -21 -20
-16 -23 -17 -23 -3 0 8 8 18 18 20 21 6 37 8 31 4z m27 -30 c-6 -27 -19 -47
-27 -41 -5 3 -2 15 6 28 8 12 12 26 8 31 -5 4 -3 5 4 2 6 -4 10 -13 9 -20z
m81 -9 c-3 -8 -6 -5 -6 6 -1 11 2 17 5 13 3 -3 4 -12 1 -19z m-29 -11 c5 -24
-15 -21 -21 4 -3 13 -1 19 6 16 7 -2 13 -11 15 -20z m-398 3 c0 -5 -4 -10 -10
-10 -5 0 -10 5 -10 10 0 6 5 10 10 10 6 0 10 -4 10 -10z m273 -12 c9 -10 15
-18 12 -18 -7 0 -65 30 -65 33 0 10 38 -1 53 -15z m-203 8 c0 -11 -19 -15 -25
-6 -3 5 1 10 9 10 9 0 16 -2 16 -4z m-32 -41 c-1 -14 -6 -25 -10 -25 -4 0 -8
-10 -8 -22 0 -12 -3 -18 -7 -14 -12 12 -10 50 4 64 7 8 10 18 7 24 -4 7 -2 8
4 4 7 -4 11 -18 10 -31z m375 5 c-3 -12 -8 -19 -11 -16 -5 6 5 36 12 36 2 0 2
-9 -1 -20z m-295 -15 c4 -4 1 -5 -7 0 -10 6 -12 1 -6 -24 5 -24 3 -31 -8 -31
-9 0 -17 -6 -20 -12 -3 -9 -11 -6 -26 10 -18 19 -20 23 -7 28 9 3 21 4 28 1 8
-4 7 -6 -4 -6 -11 -1 -15 -6 -12 -16 5 -13 8 -12 22 1 15 15 14 18 -3 30 -14
10 -15 14 -4 14 12 0 12 2 -1 10 -11 7 -8 8 13 6 15 -1 30 -6 35 -11z m49 0
c0 -8 -6 -15 -14 -15 -17 0 -17 17 0 23 6 3 12 6 13 6 0 1 1 -6 1 -14z m203
-11 c0 -2 -9 0 -20 6 -11 6 -20 13 -20 16 0 2 9 0 20 -6 11 -6 20 -13 20 -16z
m-65 6 c-3 -5 -12 -10 -18 -10 -7 0 -6 4 3 10 19 12 23 12 15 0z m-27 -35 c-2
-1 -14 -8 -28 -15 -25 -13 -25 -13 -6 8 10 12 23 19 28 16 5 -3 8 -7 6 -9z
m96 -1 c3 -8 2 -12 -4 -9 -6 3 -10 10 -10 16 0 14 7 11 14 -7z m-170 -10 c9
-24 2 -26 -12 -4 -7 11 -8 20 -3 20 5 0 12 -7 15 -16z m-198 -17 c4 -4 0 -7
-8 -7 -9 0 -19 -6 -21 -12 -3 -7 -6 -3 -6 9 -1 20 19 26 35 10z m114 -17 c0
-5 -4 -10 -9 -10 -6 0 -13 5 -16 10 -3 6 1 10 9 10 9 0 16 -4 16 -10z m130
-23 c-10 -9 -11 -9 -6 1 4 7 2 12 -6 12 -9 0 -9 3 2 10 19 12 27 -7 10 -23z
m-350 13 c0 -5 -2 -10 -4 -10 -3 0 -8 5 -11 10 -3 6 -1 10 4 10 6 0 11 -4 11
-10z m37 -22 c-3 -7 -5 -2 -5 12 0 14 2 19 5 13 2 -7 2 -19 0 -25z m-117 -14
c0 -2 -7 -4 -15 -4 -8 0 -15 4 -15 10 0 5 7 7 15 4 8 -4 15 -8 15 -10z m74 1
c3 -8 1 -15 -4 -15 -6 0 -10 5 -10 11 0 5 -5 7 -12 3 -7 -4 -8 -3 -4 4 10 16
23 15 30 -3z m116 4 c0 -6 -7 -9 -15 -5 -8 3 -15 0 -15 -6 0 -6 -3 -9 -6 -5
-9 9 5 27 22 27 8 0 14 -5 14 -11z m-70 -15 c0 -2 -7 -4 -15 -4 -8 0 -15 4
-15 10 0 5 7 7 15 4 8 -4 15 -8 15 -10z m190 -14 c-20 -13 -40 -12 -40 1 0 6
7 9 15 5 10 -3 15 1 15 11 0 14 3 14 12 5 10 -10 10 -15 -2 -22z m-170 1 c0
-14 -29 -41 -43 -41 -8 0 -7 3 2 9 7 5 11 14 7 20 -5 7 -1 9 8 5 9 -3 16 -1
16 5 0 6 2 11 5 11 3 0 5 -4 5 -9z m-61 -14 c13 4 13 3 2 -5 -7 -5 -11 -14 -7
-20 3 -6 -1 -8 -12 -5 -10 2 -19 14 -19 25 -2 15 1 18 9 10 6 -6 18 -8 27 -5z
m-54 -15 c-3 -3 -11 0 -18 7 -9 10 -8 11 6 5 10 -3 15 -9 12 -12z m190 -12 c3
-5 1 -10 -4 -10 -6 0 -11 5 -11 10 0 6 2 10 4 10 3 0 8 -4 11 -10z m75 2 c0
-4 -10 -9 -22 -9 -18 -2 -20 0 -8 7 18 12 30 13 30 2z m-126 -17 c-4 -8 -11
-12 -16 -9 -6 4 -5 10 3 15 19 12 19 11 13 -6z m-134 -25 c0 -5 -2 -10 -4 -10
-3 0 -8 5 -11 10 -3 6 -1 10 4 10 6 0 11 -4 11 -10z m140 -28 c0 -1 -9 2 -20
8 -11 6 -20 15 -20 20 0 6 9 2 20 -7 11 -10 20 -19 20 -21z m125 28 c3 -6 -1
-7 -9 -4 -18 7 -21 14 -7 14 6 0 13 -4 16 -10z m-276 -34 c-3 -3 -11 5 -18 17
-13 21 -12 21 5 5 10 -10 16 -20 13 -22z m-32 -18 c-1 -18 -9 -33 -17 -35 -12
-4 -12 -3 -1 5 10 7 10 14 2 30 -14 27 -14 32 4 32 10 0 14 -9 12 -32z m136 7
c-3 -9 -8 -14 -10 -11 -3 3 -2 9 2 15 9 16 15 13 8 -4z m-88 -15 c3 -5 1 -10
-4 -10 -6 0 -11 5 -11 10 0 6 2 10 4 10 3 0 8 -4 11 -10z"/>
<path d="M18788 22509 c-28 -27 -30 -34 -24 -75 9 -70 35 -150 57 -178 28 -36
80 -36 116 0 24 24 25 30 19 91 -17 166 -92 239 -168 162z"/>
<path d="M18535 21125 c-32 -31 -33 -82 -4 -114 18 -19 29 -22 63 -18 71 10
99 75 55 131 -28 35 -80 36 -114 1z"/>
<path d="M14204 20986 c-61 -27 -80 -85 -48 -151 37 -79 152 -64 178 22 9 29
-9 96 -31 116 -27 23 -64 28 -99 13z"/>
<path d="M13333 20689 c-99 -29 -71 -203 32 -203 42 0 85 30 98 68 14 43 -7
103 -46 126 -35 22 -38 22 -84 9z"/>
<path d="M13743 20832 c-25 -20 -47 -69 -33 -77 7 -4 146 41 160 52 3 3 -6 13
-19 24 -29 24 -79 24 -108 1z"/>
<path d="M16957 20713 c-2 -4 -17 -46 -31 -93 -15 -47 -30 -91 -32 -97 -8 -18
7 -16 69 7 l54 20 -24 82 c-25 87 -28 94 -36 81z"/>
<path d="M19446 20459 c-24 -67 -64 -194 -63 -196 6 -5 117 41 117 49 0 13
-39 150 -45 156 -2 3 -7 -1 -9 -9z"/>
<path d="M17174 19746 c-34 -15 -44 -32 -44 -77 0 -65 78 -92 127 -43 21 21
24 32 20 62 -10 59 -49 81 -103 58z"/>
<path d="M19683 19490 c-38 -15 -56 -55 -50 -108 12 -105 59 -192 103 -192 30
0 72 30 82 58 20 57 -19 196 -66 232 -27 22 -36 23 -69 10z"/>
<path d="M17473 18730 c-56 -23 -64 -79 -28 -195 22 -73 46 -99 89 -99 56 0
81 31 80 99 -2 65 -29 145 -61 180 -25 26 -43 30 -80 15z"/>
<path d="M25309 15862 c-19 -20 -74 -81 -123 -135 -50 -55 -85 -101 -80 -106
10 -9 265 -111 278 -111 8 0 4 68 -14 260 -5 52 -10 103 -10 113 0 26 -13 21
-51 -21z"/>
<path d="M26077 15639 c-27 -83 -47 -152 -45 -154 2 -2 55 -24 118 -50 167
-69 232 -65 294 19 15 20 21 41 20 75 -4 105 -57 156 -234 224 -53 20 -98 37
-100 37 -3 0 -27 -68 -53 -151z"/>
<path d="M27090 15346 c-110 -24 -189 -86 -238 -185 -24 -50 -27 -67 -27 -156
1 -93 3 -105 34 -170 61 -125 195 -230 326 -254 165 -31 330 48 398 189 111
232 -72 535 -349 580 -71 12 -74 12 -144 -4z"/>
<path d="M16454 14886 c-90 -39 -110 -167 -38 -239 69 -69 206 -30 232 66 25
92 -37 187 -121 187 -23 -1 -56 -7 -73 -14z"/>
<path d="M25573 14500 c-63 -38 -81 -120 -42 -190 60 -106 222 -126 279 -35
38 61 23 140 -37 197 -54 51 -142 64 -200 28z"/>
<path d="M26902 14000 c-57 -48 -88 -205 -48 -249 26 -28 76 -28 103 2 70 76
83 225 22 257 -27 15 -51 12 -77 -10z"/>
<path d="M27274 13855 c-51 -35 -85 -191 -53 -243 33 -53 93 -38 136 35 36 61
40 167 9 202 -22 24 -63 27 -92 6z"/>
<path d="M16375 7490 c3 -5 8 -10 11 -10 2 0 4 5 4 10 0 6 -5 10 -11 10 -5 0
-7 -4 -4 -10z"/>
<path d="M15310 6776 c0 -2 7 -6 15 -10 8 -3 15 -1 15 4 0 6 -7 10 -15 10 -8
0 -15 -2 -15 -4z"/>
<path d="M15910 7850 c0 -5 5 -10 11 -10 5 0 7 5 4 10 -3 6 -8 10 -11 10 -2 0
-4 -4 -4 -10z"/>
<path d="M16258 7833 c6 -2 18 -2 25 0 6 3 1 5 -13 5 -14 0 -19 -2 -12 -5z"/>
<path d="M16120 7819 c0 -5 5 -7 10 -4 6 3 10 8 10 11 0 2 -4 4 -10 4 -5 0
-10 -5 -10 -11z"/>
<path d="M16320 7820 c0 -5 5 -10 11 -10 5 0 7 5 4 10 -3 6 -8 10 -11 10 -2 0
-4 -4 -4 -10z"/>
<path d="M16207 7809 c7 -7 15 -10 18 -7 3 3 -2 9 -12 12 -14 6 -15 5 -6 -5z"/>
<path d="M16338 7793 c-14 -3 -17 -13 -14 -43 2 -22 0 -41 -5 -44 -5 -2 -4 -3
3 -2 8 2 13 17 12 40 -1 26 3 35 12 32 7 -3 15 2 18 10 6 14 3 15 -26 7z"/>
<path d="M16381 7764 c0 -11 3 -14 6 -6 3 7 2 16 -1 19 -3 4 -6 -2 -5 -13z"/>
<path d="M16235 7750 c3 -5 11 -10 16 -10 6 0 7 5 4 10 -3 6 -11 10 -16 10 -6
0 -7 -4 -4 -10z"/>
<path d="M16287 7741 c-3 -15 -11 -18 -28 -15 l-24 5 23 -10 c12 -6 22 -15 22
-20 0 -5 7 -12 16 -15 14 -5 15 -4 5 8 -7 9 -8 17 -2 20 10 6 9 31 -1 41 -3 3
-8 -3 -11 -14z"/>
<path d="M15938 7733 c7 -3 16 -2 19 1 4 3 -2 6 -13 5 -11 0 -14 -3 -6 -6z"/>
<path d="M16365 7721 c-3 -5 -2 -12 3 -15 5 -3 9 1 9 9 0 17 -3 19 -12 6z"/>
<path d="M15955 7710 c3 -5 8 -10 11 -10 2 0 4 5 4 10 0 6 -5 10 -11 10 -5 0
-7 -4 -4 -10z"/>
<path d="M16190 7711 c0 -6 4 -13 10 -16 6 -3 7 1 4 9 -7 18 -14 21 -14 7z"/>
<path d="M16134 7688 c1 -19 4 -24 13 -17 8 7 13 4 16 -8 4 -14 5 -13 6 5 1
13 -5 22 -13 22 -8 0 -16 6 -19 13 -2 6 -4 0 -3 -15z"/>
<path d="M16226 7697 c3 -10 9 -15 12 -12 3 3 0 11 -7 18 -10 9 -11 8 -5 -6z"/>
<path d="M16028 7678 c6 -6 18 -8 28 -6 14 3 12 5 -9 10 -19 3 -25 2 -19 -4z"/>
<path d="M16210 7666 c0 -8 -8 -16 -17 -18 -12 -2 -9 -6 12 -16 25 -12 27 -11
15 2 -10 13 -10 16 0 16 7 0 22 -11 34 -25 l21 -24 2 26 c0 14 -2 21 -6 15 -5
-8 -16 -3 -34 14 -19 17 -27 20 -27 10z"/>
<path d="M16323 7660 c1 -11 5 -20 9 -20 11 0 10 28 -1 35 -6 3 -9 -4 -8 -15z"/>
<path d="M16351 7664 c0 -11 3 -14 6 -6 3 7 2 16 -1 19 -3 4 -6 -2 -5 -13z"/>
<path d="M16120 7646 c0 -2 7 -6 15 -10 8 -3 15 -1 15 4 0 6 -7 10 -15 10 -8
0 -15 -2 -15 -4z"/>
<path d="M16151 7601 c-10 -7 -11 -13 -2 -27 6 -11 11 -17 12 -14 1 8 6 50 5
50 -1 0 -7 -4 -15 -9z"/>
<path d="M16190 7590 c0 -5 5 -10 10 -10 6 0 10 5 10 10 0 6 -4 10 -10 10 -5
0 -10 -4 -10 -10z"/>
<path d="M16241 7574 c-12 -14 -11 -16 4 -12 10 1 20 9 23 16 5 17 -10 15 -27
-4z"/>
<path d="M16020 7569 c0 -5 5 -7 10 -4 6 3 10 8 10 11 0 2 -4 4 -10 4 -5 0
-10 -5 -10 -11z"/>
<path d="M15936 7553 c-6 -14 -5 -15 5 -6 7 7 10 15 7 18 -3 3 -9 -2 -12 -12z"/>
<path d="M16040 7550 c-20 -12 -5 -24 16 -12 9 5 12 12 7 15 -5 3 -15 2 -23
-3z"/>
<path d="M16092 7551 c-10 -6 -10 -10 1 -20 8 -6 13 -21 10 -31 -6 -22 12 -28
20 -7 3 7 9 2 15 -13 6 -14 11 -19 11 -12 1 7 6 10 11 7 6 -3 10 1 10 10 0 9
-4 14 -9 10 -5 -3 -17 5 -26 17 -8 13 -18 22 -21 20 -3 -2 -8 -1 -11 2 -4 3
-1 6 5 6 7 0 12 5 12 10 0 12 -10 13 -28 1z"/>
<path d="M16170 7549 c0 -5 5 -7 10 -4 6 3 10 8 10 11 0 2 -4 4 -10 4 -5 0
-10 -5 -10 -11z"/>
<path d="M16000 7540 c-9 -6 -10 -10 -3 -10 6 0 15 5 18 10 8 12 4 12 -15 0z"/>
<path d="M16064 7519 c-3 -6 -17 -8 -29 -5 -32 8 -39 -7 -13 -30 12 -11 19
-14 15 -8 -3 6 5 17 18 24 14 7 25 17 25 22 0 11 -8 10 -16 -3z"/>
<path d="M16300 7520 c0 -5 7 -10 15 -10 8 0 15 5 15 10 0 6 -7 10 -15 10 -8
0 -15 -4 -15 -10z"/>
<path d="M15856 7497 c3 -8 11 -14 19 -14 11 0 12 4 4 14 -6 7 -15 13 -20 13
-5 0 -6 -6 -3 -13z"/>
<path d="M15935 7500 c3 -5 8 -10 11 -10 2 0 4 5 4 10 0 6 -5 10 -11 10 -5 0
-7 -4 -4 -10z"/>
<path d="M15917 7479 c7 -7 15 -10 18 -7 3 3 -2 9 -12 12 -14 6 -15 5 -6 -5z"/>
<path d="M15781 7468 c9 -7 18 -20 22 -28 4 -12 6 -12 6 2 1 10 -9 22 -21 28
-20 9 -21 9 -7 -2z"/>
<path d="M16083 7466 c0 -8 4 -13 8 -10 4 2 13 -4 19 -13 11 -17 11 -17 6 0
-3 11 -2 15 4 12 6 -3 10 -1 10 4 0 6 -4 11 -9 11 -5 0 -16 2 -24 5 -8 4 -14
0 -14 -9z"/>
<path d="M15895 7460 c3 -5 14 -10 23 -10 15 0 15 2 2 10 -20 13 -33 13 -25 0z"/>
<path d="M15940 7456 c0 -2 7 -7 16 -10 8 -3 12 -2 9 4 -6 10 -25 14 -25 6z"/>
<path d="M15987 7454 c-3 -3 -1 -17 6 -31 10 -22 12 -23 18 -6 10 29 -6 55
-24 37z"/>
<path d="M16160 7450 c0 -5 5 -10 11 -10 5 0 7 5 4 10 -3 6 -8 10 -11 10 -2 0
-4 -4 -4 -10z"/>
<path d="M16040 7430 c-6 -11 -9 -24 -6 -28 6 -11 -61 -35 -74 -27 -5 3 -10 2
-10 -3 0 -6 7 -12 15 -16 8 -3 15 -10 15 -16 0 -6 6 -18 14 -25 11 -12 14 -10
14 10 0 14 -5 22 -10 19 -5 -3 -4 3 3 14 7 12 22 23 32 26 10 2 16 9 13 14 -3
6 -3 18 1 28 6 16 7 16 14 -2 6 -16 8 -16 8 -2 1 26 -17 31 -29 8z"/>
<path d="M16130 7440 c0 -5 5 -10 10 -10 6 0 10 5 10 10 0 6 -4 10 -10 10 -5
0 -10 -4 -10 -10z"/>
<path d="M15628 7433 c-10 -2 -18 -9 -18 -14 0 -6 8 -5 20 1 11 6 20 13 20 15
0 3 -1 4 -2 4 -2 -1 -11 -3 -20 -6z"/>
<path d="M15861 7427 c-8 -10 -7 -14 4 -14 8 0 15 4 15 9 0 5 5 6 12 2 7 -4 8
-3 4 4 -9 16 -21 15 -35 -1z"/>
<path d="M15950 7402 c0 -4 9 -8 20 -9 11 -1 18 2 15 8 -7 11 -35 12 -35 1z"/>
<path d="M15645 7390 c3 -5 11 -10 16 -10 6 0 7 5 4 10 -3 6 -11 10 -16 10 -6
0 -7 -4 -4 -10z"/>
<path d="M15826 7387 c-16 -12 -16 -13 3 -14 12 -1 21 4 21 13 0 17 -2 17 -24
1z"/>
<path d="M15894 7391 c3 -5 15 -11 26 -14 17 -4 19 -3 9 9 -12 15 -44 20 -35
5z"/>
<path d="M15646 7347 c2 -7 15 -13 29 -13 33 -2 32 2 -4 14 -22 8 -29 8 -25
-1z"/>
<path d="M15802 7338 c-20 -26 -23 -55 -6 -62 9 -4 19 -4 22 -1 3 3 0 5 -6 5
-7 0 -12 5 -12 11 0 6 8 8 18 5 16 -6 16 -5 0 8 -21 15 -23 27 -5 22 6 -1 9
-1 4 1 -4 3 -5 9 -1 14 8 13 -2 11 -14 -3z"/>
<path d="M15894 7334 c-10 -8 -13 -12 -5 -8 7 3 17 0 22 -7 6 -11 11 -11 21
-1 14 14 28 16 28 4 0 -4 -16 -14 -35 -21 -19 -7 -35 -17 -35 -22 0 -6 5 -7
12 -3 6 4 8 3 5 -2 -8 -14 9 -38 22 -30 8 5 6 12 -5 23 -14 15 -14 17 1 26 9
5 27 6 41 3 22 -6 23 -5 13 18 -6 13 -20 27 -30 29 -11 3 -17 1 -13 -4 3 -5
-2 -9 -11 -9 -9 0 -13 5 -10 10 9 14 2 12 -21 -6z"/>
<path d="M15857 7330 c9 -9 9 -17 2 -26 -7 -8 -6 -15 2 -20 7 -4 15 -2 17 4 2
7 10 12 18 12 9 0 12 5 9 11 -4 6 -10 8 -13 5 -3 -3 -15 2 -26 11 -12 10 -15
11 -9 3z"/>
<path d="M15760 7303 c0 -15 -2 -16 -10 -3 -8 13 -10 12 -10 -3 0 -22 34 -69
44 -60 3 3 1 12 -5 20 -6 7 -9 24 -7 38 3 14 1 25 -3 25 -5 0 -9 -8 -9 -17z"/>
<path d="M15630 7306 c0 -2 8 -10 18 -17 15 -13 16 -12 3 4 -13 16 -21 21 -21
13z"/>
<path d="M15380 7270 c0 -5 5 -10 10 -10 6 0 10 5 10 10 0 6 -4 10 -10 10 -5
0 -10 -4 -10 -10z"/>
<path d="M15938 7273 c6 -2 18 -2 25 0 6 3 1 5 -13 5 -14 0 -19 -2 -12 -5z"/>
<path d="M15530 7261 c0 -6 4 -12 8 -15 5 -3 9 1 9 9 0 8 -4 15 -9 15 -4 0 -8
-4 -8 -9z"/>
<path d="M15697 7257 c-3 -7 5 -19 16 -27 20 -12 21 -12 8 4 -13 15 -13 19 0
27 12 7 11 9 -2 9 -9 0 -19 -6 -22 -13z"/>
<path d="M15850 7254 c0 -11 -6 -15 -20 -11 -11 3 -23 0 -27 -5 -3 -7 -1 -8 5
-4 13 8 15 4 6 -18 -5 -12 -9 -13 -25 -3 -15 9 -23 9 -39 -1 -12 -7 -26 -10
-31 -6 -7 4 -7 0 0 -14 14 -27 33 -39 24 -16 -4 11 -3 15 5 11 6 -4 12 -1 14
8 2 10 7 12 18 5 12 -8 13 -12 2 -19 -11 -6 -10 -11 3 -25 16 -16 16 -18 0
-36 -10 -11 -13 -20 -7 -20 6 0 14 5 17 10 10 17 25 11 19 -7 -5 -15 -4 -16 5
-3 6 8 8 23 5 32 -3 10 -1 26 5 36 7 13 7 22 0 29 -8 8 -7 13 2 18 8 5 10 4 5
-3 -4 -7 -2 -10 6 -7 12 5 23 65 13 65 -3 0 -5 -7 -5 -16z m-30 -79 c0 -8 -7
-15 -16 -15 -14 0 -14 3 -4 15 7 8 14 15 16 15 2 0 4 -7 4 -15z"/>
<path d="M15735 7250 c-3 -5 1 -10 10 -10 9 0 13 5 10 10 -3 6 -8 10 -10 10
-2 0 -7 -4 -10 -10z"/>
<path d="M15880 7250 c0 -5 5 -10 10 -10 6 0 10 5 10 10 0 6 -4 10 -10 10 -5
0 -10 -4 -10 -10z"/>
<path d="M15441 7223 c-7 -8 -11 -16 -8 -19 2 -2 10 2 17 11 17 20 9 27 -9 8z"/>
<path d="M15947 7226 c-11 -8 -14 -17 -8 -20 5 -4 15 3 21 14 13 23 11 24 -13
6z"/>
<path d="M15535 7200 c-3 -5 -1 -10 4 -10 6 0 11 5 11 10 0 6 -2 10 -4 10 -3
0 -8 -4 -11 -10z"/>
<path d="M15576 7167 c3 -10 9 -15 12 -12 3 3 0 11 -7 18 -10 9 -11 8 -5 -6z"/>
<path d="M15625 7169 c-4 -5 -4 -13 -1 -16 3 -4 6 0 6 8 0 11 2 11 10 -1 6 -9
10 -10 10 -3 0 17 -17 25 -25 12z"/>
<path d="M15350 7150 c0 -5 5 -10 11 -10 5 0 7 5 4 10 -3 6 -8 10 -11 10 -2 0
-4 -4 -4 -10z"/>
<path d="M15285 7140 c3 -5 8 -10 11 -10 2 0 4 5 4 10 0 6 -5 10 -11 10 -5 0
-7 -4 -4 -10z"/>
<path d="M15440 7140 c0 -15 29 -19 39 -6 9 11 6 14 -14 14 -14 0 -25 -4 -25
-8z"/>
<path d="M15535 7141 c-6 -11 13 -26 22 -17 4 3 1 6 -6 6 -7 0 -9 5 -6 10 3 6
4 10 1 10 -3 0 -7 -4 -11 -9z"/>
<path d="M15650 7125 c-10 -12 -10 -18 0 -30 7 -8 16 -12 21 -10 4 3 13 -3 18
-14 6 -11 19 -18 28 -17 21 3 24 27 4 34 -8 3 -11 0 -7 -7 10 -15 -3 -14 -19
3 -9 8 -10 17 -4 25 6 8 6 8 -3 1 -18 -15 -32 -12 -19 4 7 8 8 17 3 20 -6 3
-15 -1 -22 -9z"/>
<path d="M15610 7112 c0 -10 3 -22 8 -26 4 -4 7 -13 7 -18 0 -6 6 -13 13 -15
14 -5 16 23 2 32 -5 3 -10 15 -10 26 0 10 -4 19 -10 19 -5 0 -10 -8 -10 -18z"/>
<path d="M15567 7109 c-9 -5 -20 -8 -25 -6 -4 2 -17 -7 -29 -20 -25 -26 -18
-30 11 -8 20 15 36 12 36 -7 0 -6 -8 -7 -17 -3 -14 5 -15 4 -6 -6 10 -10 16
-9 31 4 12 11 26 15 37 11 13 -5 16 -4 11 5 -5 7 -17 11 -27 8 -24 -6 -25 9
-1 22 9 6 13 10 7 10 -5 0 -18 -4 -28 -10z"/>
<path d="M15383 7070 c-11 -16 -10 -18 2 -14 8 4 15 12 15 20 0 19 -3 18 -17
-6z"/>
<path d="M15667 7056 c-4 -10 1 -20 13 -26 25 -14 32 1 10 23 -15 16 -18 16
-23 3z"/>
<path d="M15135 7050 c3 -5 11 -10 16 -10 6 0 7 5 4 10 -3 6 -11 10 -16 10 -6
0 -7 -4 -4 -10z"/>
<path d="M15250 7040 c0 -5 5 -10 11 -10 5 0 7 5 4 10 -3 6 -8 10 -11 10 -2 0
-4 -4 -4 -10z"/>
<path d="M15516 7041 c-3 -5 1 -11 9 -15 8 -3 15 -1 15 4 0 13 -18 22 -24 11z"/>
<path d="M15555 7020 c5 -15 3 -18 -9 -14 -20 8 -49 -15 -42 -32 6 -15 -25 -7
-36 10 -4 6 -9 8 -12 6 -2 -3 2 -13 9 -24 21 -28 79 -14 98 22 14 29 12 52 -5
52 -5 0 -7 -9 -3 -20z m-12 -37 c-3 -7 -6 -13 -8 -13 -2 0 -5 6 -8 13 -3 8 1
14 8 14 7 0 11 -6 8 -14z"/>
<path d="M15450 7025 c0 -2 8 -9 18 -14 14 -8 19 -6 19 5 0 7 -9 14 -19 14
-10 0 -18 -2 -18 -5z"/>
<path d="M15650 7014 c0 -17 17 -36 24 -26 3 5 -1 15 -9 22 -8 7 -15 9 -15 4z"/>
<path d="M15273 6995 c0 -8 4 -15 9 -15 4 0 8 7 8 15 0 8 -4 15 -8 15 -5 0 -9
-7 -9 -15z"/>
<path d="M15413 6990 c1 -11 5 -20 9 -20 11 0 10 28 -1 35 -6 3 -9 -4 -8 -15z"/>
<path d="M15129 6973 c-13 -16 -12 -17 4 -4 9 7 17 15 17 17 0 8 -8 3 -21 -13z"/>
<path d="M15385 6980 c-3 -5 -1 -10 4 -10 6 0 11 5 11 10 0 6 -2 10 -4 10 -3
0 -8 -4 -11 -10z"/>
<path d="M15570 6970 c0 -5 7 -10 15 -10 8 0 15 5 15 10 0 6 -7 10 -15 10 -8
0 -15 -4 -15 -10z"/>
<path d="M15315 6950 c3 -5 8 -10 11 -10 2 0 4 5 4 10 0 6 -5 10 -11 10 -5 0
-7 -4 -4 -10z"/>
<path d="M15520 6942 c0 -12 57 -52 64 -45 11 11 7 23 -8 23 -7 0 -19 7 -26
15 -13 16 -30 20 -30 7z"/>
<path d="M15560 6940 c0 -5 5 -10 10 -10 6 0 10 5 10 10 0 6 -4 10 -10 10 -5
0 -10 -4 -10 -10z"/>
<path d="M14850 6930 c0 -5 7 -7 15 -4 8 4 15 8 15 10 0 2 -7 4 -15 4 -8 0
-15 -4 -15 -10z"/>
<path d="M15265 6920 c10 -11 20 -18 23 -16 5 6 -23 36 -34 36 -4 0 1 -9 11
-20z"/>
<path d="M15361 6923 c13 -15 12 -16 -8 -11 -13 4 -23 3 -23 -2 0 -10 41 -21
52 -14 9 6 -13 44 -26 44 -4 0 -2 -8 5 -17z"/>
<path d="M15035 6920 c-3 -5 -1 -10 4 -10 6 0 11 5 11 10 0 6 -2 10 -4 10 -3
0 -8 -4 -11 -10z"/>
<path d="M15075 6919 c-4 -6 -5 -12 -2 -15 2 -3 7 2 10 11 7 17 1 20 -8 4z"/>
<path d="M15200 6920 c8 -5 20 -10 25 -10 6 0 3 5 -5 10 -8 5 -19 10 -25 10
-5 0 -3 -5 5 -10z"/>
<path d="M15393 6917 c4 -11 -1 -22 -13 -29 -11 -7 -20 -19 -20 -26 0 -7 5
-10 10 -7 6 4 18 1 26 -6 13 -10 13 -8 5 14 -8 19 -7 25 2 21 7 -2 18 5 25 16
7 12 8 20 2 20 -5 0 -10 -6 -10 -12 0 -8 -8 -4 -17 7 -13 16 -15 17 -10 2z"/>
<path d="M14937 6885 c3 -8 9 -12 14 -9 12 7 11 11 -5 17 -10 4 -13 1 -9 -8z"/>
<path d="M15102 6885 c-11 -12 -10 -15 3 -15 8 0 15 7 15 15 0 18 -2 18 -18 0z"/>
<path d="M15245 6890 c-3 -5 -2 -10 4 -10 5 0 13 5 16 10 3 6 2 10 -4 10 -5 0
-13 -4 -16 -10z"/>
<path d="M15180 6886 c0 -2 6 -9 13 -15 10 -8 14 -7 14 4 0 8 -6 15 -14 15 -7
0 -13 -2 -13 -4z"/>
<path d="M15285 6876 c-14 -10 -15 -14 -4 -18 8 -3 21 -2 30 1 14 5 14 8 4 18
-10 9 -17 9 -30 -1z"/>
<path d="M15136 6842 c-4 -7 0 -19 8 -28 17 -17 19 -11 7 20 -5 14 -10 16 -15
8z"/>
<path d="M15510 6841 c0 -5 5 -13 10 -16 6 -3 10 -2 10 4 0 5 -4 13 -10 16 -5
3 -10 2 -10 -4z"/>
<path d="M14940 6830 c0 -5 5 -10 10 -10 6 0 10 5 10 10 0 6 -4 10 -10 10 -5
0 -10 -4 -10 -10z"/>
<path d="M15070 6830 c0 -5 5 -10 11 -10 5 0 7 5 4 10 -3 6 -8 10 -11 10 -2 0
-4 -4 -4 -10z"/>
<path d="M15036 6806 c7 -19 39 -22 50 -4 5 8 2 9 -11 5 -9 -4 -24 -2 -31 4
-12 10 -13 9 -8 -5z"/>
<path d="M14875 6800 c-3 -5 -1 -10 4 -10 6 0 11 5 11 10 0 6 -2 10 -4 10 -3
0 -8 -4 -11 -10z"/>
<path d="M14956 6801 c-4 -5 -2 -12 3 -15 5 -4 12 -2 15 3 4 5 2 12 -3 15 -5
4 -12 2 -15 -3z"/>
<path d="M14818 6793 c6 -2 9 -10 6 -15 -4 -7 -2 -8 4 -4 6 3 15 -2 21 -11 6
-10 11 -13 11 -7 0 13 -33 44 -46 43 -5 0 -3 -3 4 -6z"/>
<path d="M15106 6783 c-6 -14 -5 -15 5 -6 7 7 10 15 7 18 -3 3 -9 -2 -12 -12z"/>
<path d="M15056 6771 c-3 -4 6 -13 19 -19 14 -7 25 -8 25 -4 0 12 -39 32 -44
23z"/>
<path d="M15126 6772 c-3 -6 0 -12 6 -15 10 -3 11 -9 1 -26 -7 -11 -13 -26
-13 -33 0 -7 8 1 16 19 11 22 13 37 6 49 -6 10 -12 13 -16 6z"/>
<path d="M14920 6755 c8 -9 8 -15 2 -15 -14 0 -42 -28 -42 -42 0 -7 12 -1 26
13 14 13 27 23 30 22 6 -4 6 0 -1 20 -4 9 -12 17 -17 17 -6 0 -5 -6 2 -15z"/>
<path d="M14800 6746 c0 -2 7 -7 16 -10 8 -3 12 -2 9 4 -6 10 -25 14 -25 6z"/>
<path d="M14957 6709 c7 -7 15 -10 18 -7 3 3 -2 9 -12 12 -14 6 -15 5 -6 -5z"/>
<path d="M14913 6694 c-15 -16 -16 -24 -4 -24 8 0 24 30 19 35 -2 2 -9 -3 -15
-11z"/>
<path d="M14940 6680 c0 -13 18 -22 24 -11 3 5 -1 11 -9 15 -8 3 -15 1 -15 -4z"/>
<path d="M14995 6680 c-2 -4 3 -14 12 -21 12 -10 14 -10 9 -1 -4 7 -1 12 8 12
9 0 16 4 16 8 0 11 -38 13 -45 2z"/>
<path d="M15104 6683 c4 -8 1 -13 -7 -13 -8 0 -17 -9 -20 -19 -3 -14 2 -20 19
-24 31 -6 44 28 19 52 -10 9 -15 10 -11 4z"/>
<path d="M14840 6664 c0 -9 -8 -23 -17 -30 -16 -12 -16 -12 5 -7 15 4 22 13
22 29 0 13 -2 24 -5 24 -3 0 -5 -7 -5 -16z"/>
<path d="M15050 6670 c0 -5 5 -10 10 -10 6 0 10 5 10 10 0 6 -4 10 -10 10 -5
0 -10 -4 -10 -10z"/>
<path d="M14981 6644 c0 -11 3 -14 6 -6 3 7 2 16 -1 19 -3 4 -6 -2 -5 -13z"/>
<path d="M14888 6631 c-10 -15 -21 -19 -34 -15 -16 5 -16 4 -4 -5 22 -16 40
-13 40 5 0 9 6 14 13 11 6 -2 11 -11 9 -21 -4 -21 22 -21 39 2 11 14 11 15 -1
5 -11 -10 -17 -8 -31 13 l-17 26 -14 -21z"/>
<path d="M14929 6637 c7 -7 14 -8 21 -1 6 6 2 10 -12 11 -16 2 -18 -1 -9 -10z"/>
<path d="M14820 6598 c0 -3 9 -15 20 -28 12 -13 18 -29 16 -36 -3 -8 1 -11 10
-7 17 6 17 13 1 33 -15 18 -47 44 -47 38z"/>
<path d="M14888 6578 c-7 -16 7 -46 17 -37 3 4 2 16 -3 29 -7 18 -10 20 -14 8z"/>
<path d="M14960 6520 c-12 -7 -12 -12 -3 -21 10 -10 14 -9 19 5 8 22 2 27 -16
16z"/>
<path d="M14880 6481 c0 -5 5 -13 10 -16 6 -3 10 -2 10 4 0 5 -4 13 -10 16 -5
3 -10 2 -10 -4z"/>
</g>
</svg>
